# xmcd
#
# Track frame offsets:
#	150
#	4192
#	40290
#	72578
#	93978
#	120222
#	142665
#	164282
#	177690
#	242248
#	256582
#
# Disc length: 3813 seconds
#
# Revision: 1
# Processed by: cddbd v1.5.2PL0 Copyright (c) Steve Scherf et al.
# Submitted via: audiograbber 1.83.01
#
DISCID=8b0ee30b
DTITLE=Grateful Dead - 71-02-19A Capitol Theatre, Port Chester NY
DYEAR=1900
DGENRE=
TTITLE0=Intro
TTITLE1=Truckin'
TTITLE2=Loser
TTITLE3=Cumberland Blues
TTITLE4=It Hurts Me Too
TTITLE5=Bertha
TTITLE6=Playing In The Band
TTITLE7=Dark Hollow
TTITLE8=Smokestack Lightning
TTITLE9=China Cat Sunflower
TTITLE10=I Know You Rider
EXTD=
EXTT0=
EXTT1=
EXTT2=
EXTT3=
EXTT4=
EXTT5=
EXTT6=
EXTT7=
EXTT8=
EXTT9=
EXTT10=
PLAYORDER=
